<svg xmlns="http://www.w3.org/2000/svg" viewBox="0 0 448 512" fill="#E1306C">
<path d="M224.1 141c-63.6 0-114.9 51.3-114.9 114.9S160.5 370.8 224.1 370.8 339 319.5 339 255.9 287.7 141 224.1 141zm0 189.6c-41.2 0-74.7-33.5-74.7-74.7s33.5-74.7 74.7-74.7 74.7 33.5 74.7 74.7-33.5 74.7-74.7 74.7zm146.4-194.3c0 14.9-12 26.9-26.9 26.9-14.9 0-26.9-12-26.9-26.9s12-26.9 26.9-26.9c14.9 0 26.9 12 26.9 26.9zm76.1 27.2c-1.7-35.7-9.9-67.3-36.2-93.5S382.6 24.8 346.9 23.1C311.3 21.3 136.7 21.3 101.1 23.1 65.4 24.8 33.8 33 7.5 59.3S-1.7 111.2.1 146.9c1.8 35.7 1.8 210.3 0 245.9-1.7 35.7-9.9 67.3 16.4 93.5s57.8 34.5 93.5 36.2c35.7 1.8 210.3 1.8 245.9 0 35.7-1.7 67.3-9.9 93.5-36.2s34.5-57.8 36.2-93.5c1.8-35.7 1.8-210.3 0-245.9zM398.8 388c-7.8 19.6-22.9 34.7-42.6 42.6-29.5 11.7-99.5 9-132.1 9s-102.7 2.6-132.1-9c-19.6-7.8-34.7-22.9-42.6-42.6-11.7-29.5-9-99.5-9-132.1s-2.6-102.7 9-132.1c7.8-19.6 22.9-34.7 42.6-42.6 29.5-11.7 99.5-9 132.1-9s102.7-2.6 132.1 9c19.6 7.8 34.7 22.9 42.6 42.6 11.7 29.5 9 99.5 9 132.1s2.7 102.7-9 132.1z"></path>
</svg>
